<mxfile host="app.diagrams.net" agent="Mozilla/5.0 (Windows NT 10.0; Win64; x64) AppleWebKit/537.36 (KHTML, like Gecko) Chrome/138.0.0.0 Safari/537.36 Edg/138.0.0.0" version="27.2.0">
  <diagram name="Página-1" id="ri7BVCqXQP4RadKEpWF3">
    <mxGraphModel dx="1378" dy="756" grid="1" gridSize="10" guides="1" tooltips="1" connect="1" arrows="1" fold="1" page="1" pageScale="1" pageWidth="827" pageHeight="1169" background="none" math="0" shadow="1" adaptiveColors="simple">
      <root>
        <mxCell id="0" />
        <mxCell id="1" parent="0" />
        <mxCell id="lFZiWy_t04938xPnZxQ3-3" value="USUARIO" style="whiteSpace=wrap;html=1;align=center;labelBackgroundColor=none;fillColor=#FAE5C7;strokeColor=#0F8B8D;fontColor=#143642;rounded=0;" parent="1" vertex="1">
          <mxGeometry x="191" y="245" width="100" height="40" as="geometry" />
        </mxCell>
        <mxCell id="lFZiWy_t04938xPnZxQ3-4" value="POST" style="whiteSpace=wrap;html=1;align=center;labelBackgroundColor=none;fillColor=#FAE5C7;strokeColor=#0F8B8D;fontColor=#143642;rounded=0;" parent="1" vertex="1">
          <mxGeometry x="531" y="245" width="100" height="40" as="geometry" />
        </mxCell>
        <mxCell id="lFZiWy_t04938xPnZxQ3-5" value="COMENTARIO" style="whiteSpace=wrap;html=1;align=center;labelBackgroundColor=none;fillColor=#FAE5C7;strokeColor=#0F8B8D;fontColor=#143642;rounded=0;" parent="1" vertex="1">
          <mxGeometry x="191" y="475" width="100" height="40" as="geometry" />
        </mxCell>
        <mxCell id="lFZiWy_t04938xPnZxQ3-7" value="CATEGORIA" style="whiteSpace=wrap;html=1;align=center;labelBackgroundColor=none;fillColor=#FAE5C7;strokeColor=#0F8B8D;fontColor=#143642;rounded=0;" parent="1" vertex="1">
          <mxGeometry x="531" y="475" width="100" height="40" as="geometry" />
        </mxCell>
        <mxCell id="lFZiWy_t04938xPnZxQ3-8" value="nombre" style="ellipse;whiteSpace=wrap;html=1;align=center;labelBackgroundColor=none;fillColor=#FAE5C7;strokeColor=#0F8B8D;fontColor=#143642;rounded=0;" parent="1" vertex="1">
          <mxGeometry x="141" y="215" width="60" height="20" as="geometry" />
        </mxCell>
        <mxCell id="lFZiWy_t04938xPnZxQ3-9" value="escribe" style="shape=rhombus;perimeter=rhombusPerimeter;whiteSpace=wrap;html=1;align=center;labelBackgroundColor=none;fillColor=#FAE5C7;strokeColor=#0F8B8D;fontColor=#143642;rounded=0;" parent="1" vertex="1">
          <mxGeometry x="196" y="365" width="90" height="50" as="geometry" />
        </mxCell>
        <mxCell id="lFZiWy_t04938xPnZxQ3-12" value="correo" style="ellipse;whiteSpace=wrap;html=1;align=center;labelBackgroundColor=none;fillColor=#FAE5C7;strokeColor=#0F8B8D;fontColor=#143642;rounded=0;" parent="1" vertex="1">
          <mxGeometry x="251" y="180" width="60" height="20" as="geometry" />
        </mxCell>
        <mxCell id="lFZiWy_t04938xPnZxQ3-13" value="contraseña" style="ellipse;whiteSpace=wrap;html=1;align=center;labelBackgroundColor=none;fillColor=#FAE5C7;strokeColor=#0F8B8D;fontColor=#143642;rounded=0;" parent="1" vertex="1">
          <mxGeometry x="251" y="215" width="70" height="20" as="geometry" />
        </mxCell>
        <mxCell id="lFZiWy_t04938xPnZxQ3-14" value="Tipo" style="ellipse;whiteSpace=wrap;html=1;align=center;labelBackgroundColor=none;fillColor=#FAE5C7;strokeColor=#0F8B8D;fontColor=#143642;rounded=0;" parent="1" vertex="1">
          <mxGeometry x="80" y="245" width="60" height="20" as="geometry" />
        </mxCell>
        <mxCell id="lFZiWy_t04938xPnZxQ3-15" value="fecha_registro" style="ellipse;whiteSpace=wrap;html=1;align=center;labelBackgroundColor=none;fillColor=#FAE5C7;strokeColor=#0F8B8D;fontColor=#143642;rounded=0;" parent="1" vertex="1">
          <mxGeometry x="65" y="270" width="90" height="20" as="geometry" />
        </mxCell>
        <mxCell id="lFZiWy_t04938xPnZxQ3-16" value="ultiomo_acceso" style="ellipse;whiteSpace=wrap;html=1;align=center;labelBackgroundColor=none;fillColor=#FAE5C7;strokeColor=#0F8B8D;fontColor=#143642;rounded=0;" parent="1" vertex="1">
          <mxGeometry x="65" y="300" width="100" height="20" as="geometry" />
        </mxCell>
        <mxCell id="lFZiWy_t04938xPnZxQ3-17" value="ID_user" style="ellipse;whiteSpace=wrap;html=1;align=center;labelBackgroundColor=none;fillColor=#FAE5C7;strokeColor=#0F8B8D;fontColor=#143642;rounded=0;" parent="1" vertex="1">
          <mxGeometry x="136" y="185" width="65" height="20" as="geometry" />
        </mxCell>
        <mxCell id="lFZiWy_t04938xPnZxQ3-25" value="" style="endArrow=none;html=1;rounded=0;fontSize=12;startSize=8;endSize=8;curved=1;exitX=1;exitY=0.5;exitDx=0;exitDy=0;entryX=0.25;entryY=0;entryDx=0;entryDy=0;labelBackgroundColor=none;strokeColor=#A8201A;fontColor=default;" parent="1" source="lFZiWy_t04938xPnZxQ3-8" target="lFZiWy_t04938xPnZxQ3-3" edge="1">
          <mxGeometry relative="1" as="geometry">
            <mxPoint x="211" y="265" as="sourcePoint" />
            <mxPoint x="371" y="265" as="targetPoint" />
          </mxGeometry>
        </mxCell>
        <mxCell id="lFZiWy_t04938xPnZxQ3-26" value="" style="endArrow=none;html=1;rounded=0;fontSize=12;startSize=8;endSize=8;curved=1;exitX=1;exitY=0.5;exitDx=0;exitDy=0;labelBackgroundColor=none;strokeColor=#A8201A;fontColor=default;" parent="1" source="lFZiWy_t04938xPnZxQ3-17" edge="1">
          <mxGeometry relative="1" as="geometry">
            <mxPoint x="211" y="245" as="sourcePoint" />
            <mxPoint x="231" y="245" as="targetPoint" />
          </mxGeometry>
        </mxCell>
        <mxCell id="lFZiWy_t04938xPnZxQ3-27" value="" style="endArrow=none;html=1;rounded=0;fontSize=12;startSize=8;endSize=8;curved=1;exitX=0;exitY=0.5;exitDx=0;exitDy=0;labelBackgroundColor=none;strokeColor=#A8201A;fontColor=default;" parent="1" source="lFZiWy_t04938xPnZxQ3-12" target="lFZiWy_t04938xPnZxQ3-3" edge="1">
          <mxGeometry relative="1" as="geometry">
            <mxPoint x="241" y="235" as="sourcePoint" />
            <mxPoint x="271" y="285" as="targetPoint" />
          </mxGeometry>
        </mxCell>
        <mxCell id="lFZiWy_t04938xPnZxQ3-29" value="" style="endArrow=none;html=1;rounded=0;fontSize=12;startSize=8;endSize=8;curved=1;exitX=0;exitY=0.5;exitDx=0;exitDy=0;labelBackgroundColor=none;strokeColor=#A8201A;fontColor=default;" parent="1" source="lFZiWy_t04938xPnZxQ3-13" edge="1">
          <mxGeometry relative="1" as="geometry">
            <mxPoint x="231" y="205" as="sourcePoint" />
            <mxPoint x="241" y="245" as="targetPoint" />
          </mxGeometry>
        </mxCell>
        <mxCell id="lFZiWy_t04938xPnZxQ3-30" value="" style="endArrow=none;html=1;rounded=0;fontSize=12;startSize=8;endSize=8;curved=1;exitX=1;exitY=0.5;exitDx=0;exitDy=0;entryX=0;entryY=0.25;entryDx=0;entryDy=0;labelBackgroundColor=none;strokeColor=#A8201A;fontColor=default;" parent="1" target="lFZiWy_t04938xPnZxQ3-3" edge="1">
          <mxGeometry relative="1" as="geometry">
            <mxPoint x="141" y="255" as="sourcePoint" />
            <mxPoint x="228" y="385" as="targetPoint" />
          </mxGeometry>
        </mxCell>
        <mxCell id="lFZiWy_t04938xPnZxQ3-31" value="" style="endArrow=none;html=1;rounded=0;fontSize=12;startSize=8;endSize=8;curved=1;exitX=1;exitY=0.5;exitDx=0;exitDy=0;entryX=0;entryY=0.5;entryDx=0;entryDy=0;labelBackgroundColor=none;strokeColor=#A8201A;fontColor=default;" parent="1" source="lFZiWy_t04938xPnZxQ3-15" target="lFZiWy_t04938xPnZxQ3-3" edge="1">
          <mxGeometry relative="1" as="geometry">
            <mxPoint x="156" y="285" as="sourcePoint" />
            <mxPoint x="271" y="305" as="targetPoint" />
          </mxGeometry>
        </mxCell>
        <mxCell id="lFZiWy_t04938xPnZxQ3-32" value="" style="endArrow=none;html=1;rounded=0;fontSize=12;startSize=8;endSize=8;curved=1;exitX=1;exitY=0;exitDx=0;exitDy=0;entryX=0;entryY=0.75;entryDx=0;entryDy=0;labelBackgroundColor=none;strokeColor=#A8201A;fontColor=default;" parent="1" source="lFZiWy_t04938xPnZxQ3-16" target="lFZiWy_t04938xPnZxQ3-3" edge="1">
          <mxGeometry relative="1" as="geometry">
            <mxPoint x="161" y="315" as="sourcePoint" />
            <mxPoint x="261" y="325" as="targetPoint" />
          </mxGeometry>
        </mxCell>
        <mxCell id="lFZiWy_t04938xPnZxQ3-33" value="escribe" style="shape=rhombus;perimeter=rhombusPerimeter;whiteSpace=wrap;html=1;align=center;labelBackgroundColor=none;fillColor=#FAE5C7;strokeColor=#0F8B8D;fontColor=#143642;rounded=0;" parent="1" vertex="1">
          <mxGeometry x="375" y="240" width="90" height="50" as="geometry" />
        </mxCell>
        <mxCell id="lFZiWy_t04938xPnZxQ3-34" value="titulo" style="ellipse;whiteSpace=wrap;html=1;align=center;labelBackgroundColor=none;fillColor=#FAE5C7;strokeColor=#0F8B8D;fontColor=#143642;rounded=0;" parent="1" vertex="1">
          <mxGeometry x="501" y="205" width="70" height="20" as="geometry" />
        </mxCell>
        <mxCell id="lFZiWy_t04938xPnZxQ3-35" value="contenido" style="ellipse;whiteSpace=wrap;html=1;align=center;labelBackgroundColor=none;fillColor=#FAE5C7;strokeColor=#0F8B8D;fontColor=#143642;rounded=0;" parent="1" vertex="1">
          <mxGeometry x="501" y="165" width="70" height="20" as="geometry" />
        </mxCell>
        <mxCell id="lFZiWy_t04938xPnZxQ3-37" value="ID_autor" style="ellipse;whiteSpace=wrap;html=1;align=center;labelBackgroundColor=none;fillColor=#FAE5C7;strokeColor=#0F8B8D;fontColor=#143642;rounded=0;" parent="1" vertex="1">
          <mxGeometry x="621" y="205" width="70" height="20" as="geometry" />
        </mxCell>
        <mxCell id="lFZiWy_t04938xPnZxQ3-38" value="ID_post" style="ellipse;whiteSpace=wrap;html=1;align=center;labelBackgroundColor=none;fillColor=#FAE5C7;strokeColor=#0F8B8D;fontColor=#143642;rounded=0;" parent="1" vertex="1">
          <mxGeometry x="621" y="170" width="70" height="20" as="geometry" />
        </mxCell>
        <mxCell id="lFZiWy_t04938xPnZxQ3-39" value="Fecha_publicacion" style="ellipse;whiteSpace=wrap;html=1;align=center;labelBackgroundColor=none;fillColor=#FAE5C7;strokeColor=#0F8B8D;fontColor=#143642;rounded=0;" parent="1" vertex="1">
          <mxGeometry x="670" y="245" width="120" height="20" as="geometry" />
        </mxCell>
        <mxCell id="lFZiWy_t04938xPnZxQ3-48" value="FK" style="text;html=1;align=center;verticalAlign=middle;whiteSpace=wrap;rounded=0;labelBackgroundColor=none;fontColor=#143642;" parent="1" vertex="1">
          <mxGeometry x="676" y="200" width="60" height="30" as="geometry" />
        </mxCell>
        <mxCell id="lFZiWy_t04938xPnZxQ3-49" value="PK" style="text;html=1;align=center;verticalAlign=middle;whiteSpace=wrap;rounded=0;labelBackgroundColor=none;fontColor=#143642;" parent="1" vertex="1">
          <mxGeometry x="676" y="165" width="60" height="30" as="geometry" />
        </mxCell>
        <mxCell id="lFZiWy_t04938xPnZxQ3-50" value="PK" style="text;html=1;align=center;verticalAlign=middle;whiteSpace=wrap;rounded=0;labelBackgroundColor=none;fontColor=#143642;" parent="1" vertex="1">
          <mxGeometry x="91" y="180" width="60" height="30" as="geometry" />
        </mxCell>
        <mxCell id="lFZiWy_t04938xPnZxQ3-51" value="nombre" style="ellipse;whiteSpace=wrap;html=1;align=center;labelBackgroundColor=none;fillColor=#FAE5C7;strokeColor=#0F8B8D;fontColor=#143642;rounded=0;" parent="1" vertex="1">
          <mxGeometry x="661" y="480" width="70" height="20" as="geometry" />
        </mxCell>
        <mxCell id="lFZiWy_t04938xPnZxQ3-52" value="" style="endArrow=none;html=1;rounded=0;fontSize=12;startSize=8;endSize=8;curved=1;entryX=1;entryY=0.5;entryDx=0;entryDy=0;exitX=0.5;exitY=0;exitDx=0;exitDy=0;labelBackgroundColor=none;strokeColor=#A8201A;fontColor=default;" parent="1" source="lFZiWy_t04938xPnZxQ3-4" target="lFZiWy_t04938xPnZxQ3-34" edge="1">
          <mxGeometry width="50" height="50" relative="1" as="geometry">
            <mxPoint x="401" y="345" as="sourcePoint" />
            <mxPoint x="451" y="295" as="targetPoint" />
          </mxGeometry>
        </mxCell>
        <mxCell id="lFZiWy_t04938xPnZxQ3-53" value="" style="endArrow=none;html=1;rounded=0;fontSize=12;startSize=8;endSize=8;curved=1;entryX=1;entryY=0.5;entryDx=0;entryDy=0;exitX=0.65;exitY=0.05;exitDx=0;exitDy=0;exitPerimeter=0;labelBackgroundColor=none;strokeColor=#A8201A;fontColor=default;" parent="1" source="lFZiWy_t04938xPnZxQ3-4" target="lFZiWy_t04938xPnZxQ3-35" edge="1">
          <mxGeometry width="50" height="50" relative="1" as="geometry">
            <mxPoint x="561" y="255" as="sourcePoint" />
            <mxPoint x="551" y="225" as="targetPoint" />
          </mxGeometry>
        </mxCell>
        <mxCell id="lFZiWy_t04938xPnZxQ3-54" value="" style="endArrow=none;html=1;rounded=0;fontSize=12;startSize=8;endSize=8;curved=1;entryX=0;entryY=0.5;entryDx=0;entryDy=0;labelBackgroundColor=none;strokeColor=#A8201A;fontColor=default;" parent="1" source="lFZiWy_t04938xPnZxQ3-4" target="lFZiWy_t04938xPnZxQ3-38" edge="1">
          <mxGeometry width="50" height="50" relative="1" as="geometry">
            <mxPoint x="648" y="312" as="sourcePoint" />
            <mxPoint x="621" y="245" as="targetPoint" />
          </mxGeometry>
        </mxCell>
        <mxCell id="lFZiWy_t04938xPnZxQ3-55" value="" style="endArrow=none;html=1;rounded=0;fontSize=12;startSize=8;endSize=8;curved=1;entryX=0;entryY=0.5;entryDx=0;entryDy=0;exitX=0.75;exitY=0;exitDx=0;exitDy=0;labelBackgroundColor=none;strokeColor=#A8201A;fontColor=default;" parent="1" source="lFZiWy_t04938xPnZxQ3-4" target="lFZiWy_t04938xPnZxQ3-37" edge="1">
          <mxGeometry width="50" height="50" relative="1" as="geometry">
            <mxPoint x="621" y="310" as="sourcePoint" />
            <mxPoint x="652" y="245" as="targetPoint" />
          </mxGeometry>
        </mxCell>
        <mxCell id="lFZiWy_t04938xPnZxQ3-56" value="" style="endArrow=none;html=1;rounded=0;fontSize=12;startSize=8;endSize=8;curved=1;entryX=0;entryY=0.5;entryDx=0;entryDy=0;exitX=1;exitY=0.25;exitDx=0;exitDy=0;labelBackgroundColor=none;strokeColor=#A8201A;fontColor=default;" parent="1" source="lFZiWy_t04938xPnZxQ3-4" edge="1">
          <mxGeometry width="50" height="50" relative="1" as="geometry">
            <mxPoint x="611" y="265" as="sourcePoint" />
            <mxPoint x="671" y="255" as="targetPoint" />
          </mxGeometry>
        </mxCell>
        <mxCell id="lFZiWy_t04938xPnZxQ3-57" value="" style="endArrow=none;html=1;rounded=0;fontSize=12;startSize=8;endSize=8;curved=1;exitX=1;exitY=0.5;exitDx=0;exitDy=0;entryX=0;entryY=0.5;entryDx=0;entryDy=0;labelBackgroundColor=none;strokeColor=#A8201A;fontColor=default;" parent="1" source="lFZiWy_t04938xPnZxQ3-3" target="lFZiWy_t04938xPnZxQ3-33" edge="1">
          <mxGeometry width="50" height="50" relative="1" as="geometry">
            <mxPoint x="371" y="345" as="sourcePoint" />
            <mxPoint x="421" y="295" as="targetPoint" />
          </mxGeometry>
        </mxCell>
        <mxCell id="lFZiWy_t04938xPnZxQ3-58" value="" style="endArrow=none;html=1;rounded=0;fontSize=12;startSize=8;endSize=8;curved=1;entryX=0;entryY=0.5;entryDx=0;entryDy=0;labelBackgroundColor=none;strokeColor=#A8201A;fontColor=default;" parent="1" target="lFZiWy_t04938xPnZxQ3-4" edge="1">
          <mxGeometry width="50" height="50" relative="1" as="geometry">
            <mxPoint x="461" y="265" as="sourcePoint" />
            <mxPoint x="507" y="264" as="targetPoint" />
          </mxGeometry>
        </mxCell>
        <mxCell id="lFZiWy_t04938xPnZxQ3-60" value="ID_categoria" style="ellipse;whiteSpace=wrap;html=1;align=center;labelBackgroundColor=none;fillColor=#FAE5C7;strokeColor=#0F8B8D;fontColor=#143642;rounded=0;" parent="1" vertex="1">
          <mxGeometry x="651" y="445" width="90" height="20" as="geometry" />
        </mxCell>
        <mxCell id="lFZiWy_t04938xPnZxQ3-63" value="PK" style="text;html=1;align=center;verticalAlign=middle;whiteSpace=wrap;rounded=0;labelBackgroundColor=none;fontColor=#143642;" parent="1" vertex="1">
          <mxGeometry x="720" y="440" width="60" height="30" as="geometry" />
        </mxCell>
        <mxCell id="lFZiWy_t04938xPnZxQ3-64" value="descripcion" style="ellipse;whiteSpace=wrap;html=1;align=center;labelBackgroundColor=none;fillColor=#FAE5C7;strokeColor=#0F8B8D;fontColor=#143642;rounded=0;" parent="1" vertex="1">
          <mxGeometry x="661" y="515" width="70" height="20" as="geometry" />
        </mxCell>
        <mxCell id="lFZiWy_t04938xPnZxQ3-68" value="ID_post" style="ellipse;whiteSpace=wrap;html=1;align=center;labelBackgroundColor=none;fillColor=#FAE5C7;strokeColor=#0F8B8D;fontColor=#143642;rounded=0;" parent="1" vertex="1">
          <mxGeometry x="91" y="495" width="70" height="20" as="geometry" />
        </mxCell>
        <mxCell id="lFZiWy_t04938xPnZxQ3-69" value="ID_comentarioi" style="ellipse;whiteSpace=wrap;html=1;align=center;labelBackgroundColor=none;fillColor=#FAE5C7;strokeColor=#0F8B8D;fontColor=#143642;rounded=0;" parent="1" vertex="1">
          <mxGeometry x="80" y="455" width="90" height="20" as="geometry" />
        </mxCell>
        <mxCell id="lFZiWy_t04938xPnZxQ3-70" value="ID_categoria" style="ellipse;whiteSpace=wrap;html=1;align=center;labelBackgroundColor=none;fillColor=#FAE5C7;strokeColor=#0F8B8D;fontColor=#143642;rounded=0;" parent="1" vertex="1">
          <mxGeometry x="85" y="535" width="80" height="20" as="geometry" />
        </mxCell>
        <mxCell id="lFZiWy_t04938xPnZxQ3-71" value="PK" style="text;html=1;align=center;verticalAlign=middle;whiteSpace=wrap;rounded=0;labelBackgroundColor=none;fontColor=#143642;" parent="1" vertex="1">
          <mxGeometry x="40" y="450" width="60" height="30" as="geometry" />
        </mxCell>
        <mxCell id="lFZiWy_t04938xPnZxQ3-72" value="FK" style="text;html=1;align=center;verticalAlign=middle;whiteSpace=wrap;rounded=0;labelBackgroundColor=none;fontColor=#143642;" parent="1" vertex="1">
          <mxGeometry x="50" y="490" width="60" height="30" as="geometry" />
        </mxCell>
        <mxCell id="lFZiWy_t04938xPnZxQ3-73" value="FK" style="text;html=1;align=center;verticalAlign=middle;whiteSpace=wrap;rounded=0;labelBackgroundColor=none;fontColor=#143642;" parent="1" vertex="1">
          <mxGeometry x="40" y="525" width="60" height="30" as="geometry" />
        </mxCell>
        <mxCell id="lFZiWy_t04938xPnZxQ3-74" value="" style="endArrow=none;html=1;rounded=0;fontSize=12;startSize=8;endSize=8;curved=1;exitX=1;exitY=0.5;exitDx=0;exitDy=0;entryX=0;entryY=0;entryDx=0;entryDy=0;labelBackgroundColor=none;strokeColor=#A8201A;fontColor=default;" parent="1" target="lFZiWy_t04938xPnZxQ3-5" edge="1">
          <mxGeometry relative="1" as="geometry">
            <mxPoint x="171" y="465" as="sourcePoint" />
            <mxPoint x="251" y="425" as="targetPoint" />
          </mxGeometry>
        </mxCell>
        <mxCell id="lFZiWy_t04938xPnZxQ3-75" value="" style="endArrow=none;html=1;rounded=0;fontSize=12;startSize=8;endSize=8;curved=1;exitX=1;exitY=0.5;exitDx=0;exitDy=0;entryX=0;entryY=0.5;entryDx=0;entryDy=0;labelBackgroundColor=none;strokeColor=#A8201A;fontColor=default;" parent="1" source="lFZiWy_t04938xPnZxQ3-68" target="lFZiWy_t04938xPnZxQ3-5" edge="1">
          <mxGeometry relative="1" as="geometry">
            <mxPoint x="221" y="505" as="sourcePoint" />
            <mxPoint x="241" y="515" as="targetPoint" />
          </mxGeometry>
        </mxCell>
        <mxCell id="lFZiWy_t04938xPnZxQ3-76" value="" style="endArrow=none;html=1;rounded=0;fontSize=12;startSize=8;endSize=8;curved=1;exitX=1;exitY=0.5;exitDx=0;exitDy=0;entryX=0;entryY=1;entryDx=0;entryDy=0;labelBackgroundColor=none;strokeColor=#A8201A;fontColor=default;" parent="1" target="lFZiWy_t04938xPnZxQ3-5" edge="1">
          <mxGeometry relative="1" as="geometry">
            <mxPoint x="166" y="545" as="sourcePoint" />
            <mxPoint x="241" y="535" as="targetPoint" />
          </mxGeometry>
        </mxCell>
        <mxCell id="lFZiWy_t04938xPnZxQ3-77" value="" style="endArrow=none;html=1;rounded=0;fontSize=12;startSize=8;endSize=8;curved=1;exitX=0.5;exitY=0;exitDx=0;exitDy=0;entryX=0.5;entryY=1;entryDx=0;entryDy=0;labelBackgroundColor=none;strokeColor=#A8201A;fontColor=default;" parent="1" source="lFZiWy_t04938xPnZxQ3-5" target="lFZiWy_t04938xPnZxQ3-9" edge="1">
          <mxGeometry relative="1" as="geometry">
            <mxPoint x="361" y="465" as="sourcePoint" />
            <mxPoint x="391" y="455" as="targetPoint" />
          </mxGeometry>
        </mxCell>
        <mxCell id="lFZiWy_t04938xPnZxQ3-78" value="" style="endArrow=none;html=1;rounded=0;fontSize=12;startSize=8;endSize=8;curved=1;exitX=0.5;exitY=0;exitDx=0;exitDy=0;entryX=0.5;entryY=1;entryDx=0;entryDy=0;labelBackgroundColor=none;strokeColor=#A8201A;fontColor=default;" parent="1" source="lFZiWy_t04938xPnZxQ3-9" target="lFZiWy_t04938xPnZxQ3-3" edge="1">
          <mxGeometry relative="1" as="geometry">
            <mxPoint x="321" y="555" as="sourcePoint" />
            <mxPoint x="321" y="495" as="targetPoint" />
          </mxGeometry>
        </mxCell>
        <mxCell id="lFZiWy_t04938xPnZxQ3-79" value="" style="endArrow=none;html=1;rounded=0;fontSize=12;startSize=8;endSize=8;curved=1;entryX=0.5;entryY=1;entryDx=0;entryDy=0;exitX=0.5;exitY=0;exitDx=0;exitDy=0;labelBackgroundColor=none;strokeColor=#A8201A;fontColor=default;" parent="1" source="eJfZywIPN0utcHiNIcgD-1" target="lFZiWy_t04938xPnZxQ3-4" edge="1">
          <mxGeometry relative="1" as="geometry">
            <mxPoint x="581" y="335" as="sourcePoint" />
            <mxPoint x="471" y="395" as="targetPoint" />
          </mxGeometry>
        </mxCell>
        <mxCell id="eJfZywIPN0utcHiNIcgD-1" value="pertenece" style="shape=rhombus;perimeter=rhombusPerimeter;whiteSpace=wrap;html=1;align=center;labelBackgroundColor=none;fillColor=#FAE5C7;strokeColor=#0F8B8D;fontColor=#143642;rounded=0;" parent="1" vertex="1">
          <mxGeometry x="536" y="355" width="90" height="50" as="geometry" />
        </mxCell>
        <mxCell id="eJfZywIPN0utcHiNIcgD-2" value="tiene" style="shape=rhombus;perimeter=rhombusPerimeter;whiteSpace=wrap;html=1;align=center;labelBackgroundColor=none;fillColor=#FAE5C7;strokeColor=#0F8B8D;fontColor=#143642;rounded=0;" parent="1" vertex="1">
          <mxGeometry x="361" y="405" width="90" height="50" as="geometry" />
        </mxCell>
        <mxCell id="eJfZywIPN0utcHiNIcgD-3" value="" style="endArrow=none;html=1;rounded=0;fontSize=12;startSize=8;endSize=8;curved=1;entryX=0.5;entryY=1;entryDx=0;entryDy=0;exitX=0.5;exitY=0;exitDx=0;exitDy=0;labelBackgroundColor=none;strokeColor=#A8201A;fontColor=default;" parent="1" source="lFZiWy_t04938xPnZxQ3-7" target="eJfZywIPN0utcHiNIcgD-1" edge="1">
          <mxGeometry relative="1" as="geometry">
            <mxPoint x="561" y="485" as="sourcePoint" />
            <mxPoint x="561" y="415" as="targetPoint" />
          </mxGeometry>
        </mxCell>
        <mxCell id="eJfZywIPN0utcHiNIcgD-4" value="" style="endArrow=none;html=1;rounded=0;fontSize=12;startSize=8;endSize=8;curved=1;exitX=1;exitY=0.5;exitDx=0;exitDy=0;entryX=0;entryY=1;entryDx=0;entryDy=0;labelBackgroundColor=none;strokeColor=#A8201A;fontColor=default;" parent="1" source="eJfZywIPN0utcHiNIcgD-2" target="lFZiWy_t04938xPnZxQ3-4" edge="1">
          <mxGeometry relative="1" as="geometry">
            <mxPoint x="551" y="565" as="sourcePoint" />
            <mxPoint x="511" y="505" as="targetPoint" />
          </mxGeometry>
        </mxCell>
        <mxCell id="eJfZywIPN0utcHiNIcgD-5" value="" style="endArrow=none;html=1;rounded=0;fontSize=12;startSize=8;endSize=8;curved=1;exitX=1;exitY=0.5;exitDx=0;exitDy=0;entryX=0;entryY=0.5;entryDx=0;entryDy=0;labelBackgroundColor=none;strokeColor=#A8201A;fontColor=default;" parent="1" source="lFZiWy_t04938xPnZxQ3-5" target="eJfZywIPN0utcHiNIcgD-2" edge="1">
          <mxGeometry relative="1" as="geometry">
            <mxPoint x="501" y="525" as="sourcePoint" />
            <mxPoint x="561" y="540" as="targetPoint" />
          </mxGeometry>
        </mxCell>
        <mxCell id="eJfZywIPN0utcHiNIcgD-6" value="" style="endArrow=none;html=1;rounded=0;fontSize=12;startSize=8;endSize=8;curved=1;entryX=0;entryY=0.5;entryDx=0;entryDy=0;exitX=0.87;exitY=0;exitDx=0;exitDy=0;exitPerimeter=0;labelBackgroundColor=none;strokeColor=#A8201A;fontColor=default;" parent="1" source="lFZiWy_t04938xPnZxQ3-7" target="lFZiWy_t04938xPnZxQ3-60" edge="1">
          <mxGeometry width="50" height="50" relative="1" as="geometry">
            <mxPoint x="651" y="255" as="sourcePoint" />
            <mxPoint x="691" y="255" as="targetPoint" />
          </mxGeometry>
        </mxCell>
        <mxCell id="eJfZywIPN0utcHiNIcgD-7" value="" style="endArrow=none;html=1;rounded=0;fontSize=12;startSize=8;endSize=8;curved=1;entryX=0;entryY=0.5;entryDx=0;entryDy=0;exitX=1;exitY=0.25;exitDx=0;exitDy=0;labelBackgroundColor=none;strokeColor=#A8201A;fontColor=default;" parent="1" source="lFZiWy_t04938xPnZxQ3-7" target="lFZiWy_t04938xPnZxQ3-51" edge="1">
          <mxGeometry width="50" height="50" relative="1" as="geometry">
            <mxPoint x="641" y="465" as="sourcePoint" />
            <mxPoint x="674" y="425" as="targetPoint" />
          </mxGeometry>
        </mxCell>
        <mxCell id="eJfZywIPN0utcHiNIcgD-8" value="" style="endArrow=none;html=1;rounded=0;fontSize=12;startSize=8;endSize=8;curved=1;entryX=0;entryY=0.5;entryDx=0;entryDy=0;exitX=1;exitY=0.75;exitDx=0;exitDy=0;labelBackgroundColor=none;strokeColor=#A8201A;fontColor=default;" parent="1" source="lFZiWy_t04938xPnZxQ3-7" target="lFZiWy_t04938xPnZxQ3-64" edge="1">
          <mxGeometry width="50" height="50" relative="1" as="geometry">
            <mxPoint x="651" y="475" as="sourcePoint" />
            <mxPoint x="681" y="465" as="targetPoint" />
          </mxGeometry>
        </mxCell>
      </root>
    </mxGraphModel>
  </diagram>
</mxfile>
